<svg xmlns="http://www.w3.org/2000/svg" viewBox="0 0 100 100" width="100" height="100">
  <!-- ceiling panel -->
  <rect x="5" y="5" width="90" height="90" rx="6" fill="#E8E8E8" stroke="#CCC" stroke-width="1.5"/>
  <!-- grille -->
  <rect x="15" y="15" width="70" height="70" rx="4" fill="#214E8F"/>
  <rect x="18" y="22" width="64" height="3" rx="1" fill="#3B7DD8" opacity="0.5"/>
  <rect x="18" y="30" width="64" height="3" rx="1" fill="#3B7DD8" opacity="0.5"/>
  <rect x="18" y="38" width="64" height="3" rx="1" fill="#3B7DD8" opacity="0.5"/>
  <rect x="18" y="46" width="64" height="3" rx="1" fill="#3B7DD8" opacity="0.5"/>
  <rect x="18" y="54" width="64" height="3" rx="1" fill="#3B7DD8" opacity="0.5"/>
  <rect x="18" y="62" width="64" height="3" rx="1" fill="#3B7DD8" opacity="0.5"/>
  <!-- center logo area -->
  <rect x="40" y="20" width="20" height="55" rx="2" fill="#1D8CD6" opacity="0.3"/>
  <!-- 4-way arrows -->
  <path d="M50 5 l-5 8 h10 z M50 95 l-5 -8 h10 z M5 50 l8 -5 v10 z M95 50 l-8 -5 v10 z" fill="#1D8CD6" opacity="0.5"/>
</svg>